<svg width="161" height="50" viewBox="0 0 161 50" fill="none" xmlns="http://www.w3.org/2000/svg">
<g filter="url(#filter0_d_357_227)">
<mask id="path-1-inside-1_357_227" fill="white">
<path d="M150.101 0C155.015 0.000234105 159 3.98458 159 8.89941V26.6992C159 31.6142 155.016 35.5984 150.101 35.5986H41.0303C39.7455 38.1245 33.763 48.3926 21.4053 48.3926C26.9598 43.5004 23.2071 37.4384 21.8428 35.5986H9.58301C4.66797 35.5985 0.683598 31.6143 0.683594 26.6992V8.89941C0.683817 3.98453 4.66811 0.000152327 9.58301 0H150.101Z"/>
</mask>
<path d="M150.101 0C155.015 0.000234105 159 3.98458 159 8.89941V26.6992C159 31.6142 155.016 35.5984 150.101 35.5986H41.0303C39.7455 38.1245 33.763 48.3926 21.4053 48.3926C26.9598 43.5004 23.2071 37.4384 21.8428 35.5986H9.58301C4.66797 35.5985 0.683598 31.6143 0.683594 26.6992V8.89941C0.683817 3.98453 4.66811 0.000152327 9.58301 0H150.101Z" fill="#EF914E"/>
<path d="M150.101 0L150.101 -0.556231H150.101V0ZM159 8.89941H159.556V8.89939L159 8.89941ZM159 26.6992L159.556 26.6992V26.6992H159ZM150.101 35.5986V36.1549H150.101L150.101 35.5986ZM41.0303 35.5986V35.0424H40.6892L40.5345 35.3465L41.0303 35.5986ZM21.4053 48.3926L21.0376 47.9752L19.9322 48.9488H21.4053V48.3926ZM21.8428 35.5986L22.2896 35.2673L22.1228 35.0424H21.8428V35.5986ZM9.58301 35.5986L9.58299 36.1549H9.58301V35.5986ZM0.683594 26.6992H0.127363H0.683594ZM0.683594 8.89941L0.127363 8.89939V8.89941H0.683594ZM9.58301 0V-0.556231H9.58299L9.58301 0ZM150.101 0L150.101 0.556231C154.708 0.55645 158.444 4.29178 158.444 8.89944L159 8.89941L159.556 8.89939C159.556 3.67737 155.323 -0.555982 150.101 -0.556231L150.101 0ZM159 8.89941H158.444V26.6992H159H159.556V8.89941H159ZM159 26.6992L158.444 26.6992C158.444 31.307 154.708 35.0422 150.101 35.0424L150.101 35.5986L150.101 36.1549C155.323 36.1546 159.556 31.9215 159.556 26.6992L159 26.6992ZM150.101 35.5986V35.0424H41.0303V35.5986V36.1549H150.101V35.5986ZM41.0303 35.5986L40.5345 35.3465C39.2621 37.848 33.419 47.8363 21.4053 47.8363V48.3926V48.9488C34.1069 48.9488 40.2289 38.401 41.5261 35.8508L41.0303 35.5986ZM21.4053 48.3926L21.7729 48.81C24.7142 46.2194 25.2099 43.2768 24.7664 40.7546C24.3299 38.272 22.9913 36.2136 22.2896 35.2673L21.8428 35.5986L21.396 35.93C22.0586 36.8234 23.2784 38.7159 23.6708 40.9472C24.0561 43.139 23.6508 45.6736 21.0376 47.9752L21.4053 48.3926ZM21.8428 35.5986V35.0424H9.58301V35.5986V36.1549H21.8428V35.5986ZM9.58301 35.5986L9.58302 35.0424C4.97515 35.0423 1.23983 31.3071 1.23982 26.6992H0.683594H0.127363C0.127367 31.9215 4.36078 36.1547 9.58299 36.1549L9.58301 35.5986ZM0.683594 26.6992H1.23982V8.89941H0.683594H0.127363V26.6992H0.683594ZM0.683594 8.89941L1.23982 8.89944C1.24003 4.29173 4.97532 0.556374 9.58302 0.556231L9.58301 0L9.58299 -0.556231C4.3609 -0.556069 0.1276 3.67734 0.127363 8.89939L0.683594 8.89941ZM9.58301 0V0.556231H150.101V0V-0.556231H9.58301V0Z" fill="black" mask="url(#path-1-inside-1_357_227)"/>
</g>
<path d="M23.0909 19.6667L25.031 12.2266H28.7867V24.8998H26.3304V20.1473L26.633 13.9531L25.7608 17.78L23.9096 24.8998H21.2219L19.3352 17.6554L18.463 13.9353L18.7656 20.1473V24.8998H16.3271V12.2266H20.0294L22.0051 19.6667L22.5213 22.1943L23.0909 19.6667ZM38.6133 24.8998H36.068C35.9256 24.3124 35.8722 24.0098 35.8722 23.9742C35.2136 24.7752 34.2703 25.1668 33.0421 25.1668C32.081 25.1668 31.2978 24.9176 30.7282 24.4014C30.1408 23.903 29.856 23.2266 29.856 22.3723C29.856 20.8949 30.7816 19.9693 32.6505 19.5955L35.8544 18.9548V18.2784C35.8544 17.6198 35.3382 17.2816 34.3059 17.2816C33.7897 17.2816 33.3981 17.3884 33.1489 17.5664C32.8819 17.7622 32.7217 18.0648 32.6683 18.492L30.3722 18.4564C30.5146 16.4985 31.8318 15.5017 34.2881 15.5017C36.9224 15.5017 38.2573 16.6408 38.2573 18.9192V22.9774C38.2573 23.8496 38.3641 24.4904 38.6133 24.8998ZM33.7541 23.3156C34.3771 23.3156 34.8755 23.1376 35.267 22.7638C35.6586 22.3901 35.8544 21.8739 35.8544 21.2331V20.5567L33.5049 21.0551C32.7039 21.2153 32.3123 21.6069 32.3123 22.2121C32.3123 22.5502 32.4369 22.8172 32.6861 23.013C32.9353 23.2266 33.2913 23.3156 33.7541 23.3156ZM45.4953 20.6279V15.7153H48.005V24.8998H45.5487L45.5131 23.6538C44.9079 24.6506 44.0358 25.1312 42.861 25.1312C41.8998 25.1312 41.17 24.8464 40.6361 24.259C40.1021 23.6894 39.8529 22.8884 39.8529 21.8739V15.7153H42.3626V21.3043C42.3626 21.8027 42.4694 22.1943 42.7008 22.4612C42.9322 22.746 43.2704 22.8706 43.6976 22.8706C44.2315 22.8706 44.6587 22.6748 44.9969 22.2655C45.3173 21.8561 45.4953 21.3043 45.4953 20.6279ZM59.47 16.6408V12.2266H61.9798V24.8998H59.7548L59.6658 23.7606C59.0251 24.7218 58.1351 25.2024 56.9959 25.2024C55.8212 25.2024 54.8778 24.7574 54.148 23.8318C53.4005 22.924 53.0445 21.7315 53.0445 20.2719C53.0445 18.8302 53.4005 17.6732 54.1124 16.7832C54.8244 15.9289 55.7144 15.4839 56.8001 15.4839C57.9393 15.4839 58.8293 15.8755 59.47 16.6408ZM57.5299 22.9952C58.1351 22.9952 58.6157 22.746 59.0073 22.2477C59.3989 21.7493 59.5946 21.0907 59.5946 20.2719C59.5946 19.4532 59.3989 18.8124 59.0251 18.314C58.6335 17.8156 58.1351 17.5664 57.5299 17.5664C56.9069 17.5664 56.4086 17.8156 56.0348 18.314C55.6432 18.8124 55.4652 19.4532 55.4652 20.2719C55.4652 21.0907 55.6432 21.7493 56.0348 22.2477C56.4086 22.746 56.9069 22.9952 57.5299 22.9952ZM72.3341 20.6279V21.0551H65.6772C65.7128 21.7493 65.9264 22.2833 66.318 22.6748C66.6917 23.0664 67.1901 23.2622 67.8309 23.2622C68.7209 23.2622 69.3082 22.8706 69.6108 22.0697L72.1028 22.2477C71.7824 23.2266 71.2662 23.9742 70.5542 24.4726C69.8244 24.971 68.9345 25.2202 67.8843 25.2202C66.3891 25.2202 65.2322 24.7574 64.3778 23.8318C63.5234 22.9062 63.0963 21.7315 63.0963 20.2719C63.0963 18.8836 63.5056 17.7444 64.3244 16.8366C65.1432 15.9467 66.229 15.4839 67.6173 15.4839C69.0057 15.4839 70.127 15.9467 71.017 16.8722C71.8892 17.8156 72.3341 19.0616 72.3341 20.6279ZM69.0947 17.8512C68.7387 17.4952 68.2759 17.3172 67.7063 17.3172C67.1367 17.3172 66.6561 17.4952 66.3002 17.8512C65.9264 18.2428 65.7128 18.7412 65.6594 19.3464H69.7354C69.6642 18.7056 69.4506 18.2072 69.0947 17.8512ZM80.2372 24.4192C79.5074 24.971 78.5107 25.238 77.2647 25.238C76.001 25.238 75.022 24.971 74.3456 24.437C73.6336 23.903 73.2243 23.1554 73.0997 22.1587L75.3958 22.0697C75.556 23.0308 76.2145 23.4936 77.3537 23.4936C77.8521 23.4936 78.2615 23.4046 78.5641 23.2266C78.8489 23.0486 79.0091 22.7994 79.0091 22.479C79.0091 22.0341 78.5997 21.7315 77.7987 21.5535L75.9832 21.1975C74.2032 20.8415 73.3132 19.9515 73.3132 18.5098C73.3132 17.5842 73.6514 16.8544 74.3278 16.3027C75.0042 15.7687 75.912 15.4839 77.0511 15.4839C78.1547 15.4839 79.0625 15.7509 79.7744 16.2849C80.4864 16.8188 80.8958 17.5308 81.0204 18.4208L78.7599 18.5098C78.6887 18.1182 78.5107 17.7978 78.1903 17.5664C77.8699 17.3528 77.4783 17.2282 77.0155 17.2282C76.5883 17.2282 76.2679 17.3172 76.0188 17.4952C75.7696 17.6732 75.645 17.9224 75.645 18.2072C75.645 18.67 75.9832 18.9904 76.6773 19.1328L78.6531 19.5421C79.5608 19.7379 80.2372 20.0405 80.6822 20.4677C81.1094 20.8949 81.3408 21.4645 81.3408 22.1765C81.3408 23.1376 80.967 23.8852 80.2372 24.4192ZM90.6328 24.8998H88.0874C87.945 24.3124 87.8916 24.0098 87.8916 23.9742C87.2331 24.7752 86.2897 25.1668 85.0615 25.1668C84.1004 25.1668 83.3172 24.9176 82.7476 24.4014C82.1602 23.903 81.8755 23.2266 81.8755 22.3723C81.8755 20.8949 82.801 19.9693 84.67 19.5955L87.8738 18.9548V18.2784C87.8738 17.6198 87.3577 17.2816 86.3253 17.2816C85.8091 17.2816 85.4175 17.3884 85.1683 17.5664C84.9013 17.7622 84.7412 18.0648 84.6878 18.492L82.3916 18.4564C82.534 16.4985 83.8512 15.5017 86.3075 15.5017C88.9418 15.5017 90.2768 16.6408 90.2768 18.9192V22.9774C90.2768 23.8496 90.3836 24.4904 90.6328 24.8998ZM85.7735 23.3156C86.3965 23.3156 86.8949 23.1376 87.2865 22.7638C87.6781 22.3901 87.8738 21.8739 87.8738 21.2331V20.5567L85.5243 21.0551C84.7234 21.2153 84.3318 21.6069 84.3318 22.2121C84.3318 22.5502 84.4564 22.8172 84.7056 23.013C84.9547 23.2266 85.3107 23.3156 85.7735 23.3156ZM94.382 14.5049H91.8723V12.2266H94.382V14.5049ZM94.382 24.8998H91.8723V15.7153H94.382V24.8998ZM101.123 15.4839C102.067 15.4839 102.797 15.7865 103.331 16.3561C103.865 16.9434 104.132 17.7444 104.132 18.7412V24.8998H101.622V19.3108C101.622 18.8124 101.497 18.4386 101.266 18.1538C101.034 17.8868 100.714 17.7444 100.287 17.7444C99.7529 17.7444 99.3079 17.958 98.9875 18.3674C98.6493 18.7768 98.4891 19.3108 98.4891 19.9871V24.8998H95.9794V15.7153H98.4357L98.4713 16.9612C99.0587 15.9823 99.9487 15.4839 101.123 15.4839ZM117.786 24.8998H115.241C115.098 24.3124 115.045 24.0098 115.045 23.9742C114.386 24.7752 113.443 25.1668 112.215 25.1668C111.253 25.1668 110.47 24.9176 109.901 24.4014C109.313 23.903 109.029 23.2266 109.029 22.3723C109.029 20.8949 109.954 19.9693 111.823 19.5955L115.027 18.9548V18.2784C115.027 17.6198 114.511 17.2816 113.478 17.2816C112.962 17.2816 112.571 17.3884 112.321 17.5664C112.054 17.7622 111.894 18.0648 111.841 18.492L109.545 18.4564C109.687 16.4985 111.004 15.5017 113.461 15.5017C116.095 15.5017 117.43 16.6408 117.43 18.9192V22.9774C117.43 23.8496 117.537 24.4904 117.786 24.8998ZM112.927 23.3156C113.55 23.3156 114.048 23.1376 114.44 22.7638C114.831 22.3901 115.027 21.8739 115.027 21.2331V20.5567L112.677 21.0551C111.876 21.2153 111.485 21.6069 111.485 22.2121C111.485 22.5502 111.609 22.8172 111.859 23.013C112.108 23.2266 112.464 23.3156 112.927 23.3156ZM124.205 15.4839C125.273 15.4839 126.181 15.9289 126.893 16.7832C127.605 17.6732 127.961 18.8302 127.961 20.2719C127.961 21.7315 127.587 22.924 126.857 23.8318C126.11 24.7574 125.166 25.2024 124.009 25.2024C122.959 25.2024 122.14 24.8286 121.535 24.0454V28.5308H119.025V15.7153H121.25L121.339 16.9078C121.962 15.9645 122.923 15.4839 124.205 15.4839ZM123.475 22.9952C124.08 22.9952 124.579 22.746 124.97 22.2477C125.344 21.7493 125.54 21.0907 125.54 20.2719C125.54 19.4532 125.344 18.8124 124.97 18.314C124.579 17.8156 124.08 17.5664 123.475 17.5664C122.852 17.5664 122.354 17.8156 121.98 18.314C121.589 18.8124 121.411 19.4532 121.411 20.2719C121.411 21.0907 121.589 21.7493 121.98 22.2477C122.372 22.746 122.87 22.9952 123.475 22.9952ZM137.177 24.8998H134.631C134.489 24.3124 134.436 24.0098 134.436 23.9742C133.777 24.7752 132.834 25.1668 131.606 25.1668C130.644 25.1668 129.861 24.9176 129.292 24.4014C128.704 23.903 128.419 23.2266 128.419 22.3723C128.419 20.8949 129.345 19.9693 131.214 19.5955L134.418 18.9548V18.2784C134.418 17.6198 133.902 17.2816 132.869 17.2816C132.353 17.2816 131.962 17.3884 131.712 17.5664C131.445 17.7622 131.285 18.0648 131.232 18.492L128.936 18.4564C129.078 16.4985 130.395 15.5017 132.852 15.5017C135.486 15.5017 136.821 16.6408 136.821 18.9192V22.9774C136.821 23.8496 136.928 24.4904 137.177 24.8998ZM132.318 23.3156C132.941 23.3156 133.439 23.1376 133.83 22.7638C134.222 22.3901 134.418 21.8739 134.418 21.2331V20.5567L132.068 21.0551C131.267 21.2153 130.876 21.6069 130.876 22.2121C130.876 22.5502 131 22.8172 131.25 23.013C131.499 23.2266 131.855 23.3156 132.318 23.3156ZM143.845 20.7347H141.46V20.2541C141.46 19.6667 141.567 19.1684 141.816 18.7768C142.065 18.3852 142.51 17.958 143.169 17.513C143.632 17.2104 143.952 16.9256 144.148 16.6586C144.326 16.3917 144.433 16.0891 144.433 15.7331C144.433 15.2347 144.237 14.8431 143.863 14.5761C143.489 14.3091 143.009 14.1667 142.421 14.1667C141.122 14.1667 140.445 14.8431 140.392 16.1781H137.847C137.882 14.8253 138.292 13.7751 139.093 13.0454C139.894 12.3156 141.015 11.9418 142.475 11.9418C143.934 11.9418 145.091 12.28 145.945 12.9564C146.782 13.6327 147.209 14.5405 147.209 15.6441C147.209 16.8188 146.675 17.7444 145.625 18.4386L144.789 18.9904C144.397 19.2396 144.148 19.471 144.023 19.6845C143.899 19.8981 143.845 20.1651 143.845 20.4855V20.7347ZM144.005 24.8998H141.3V22.2299H144.005V24.8998Z" fill="black"/>
<defs>
<filter id="filter0_d_357_227" x="0.683594" y="0" width="159.429" height="49.505" filterUnits="userSpaceOnUse" color-interpolation-filters="sRGB">
<feFlood flood-opacity="0" result="BackgroundImageFix"/>
<feColorMatrix in="SourceAlpha" type="matrix" values="0 0 0 0 0 0 0 0 0 0 0 0 0 0 0 0 0 0 127 0" result="hardAlpha"/>
<feOffset dx="1.11246" dy="1.11246"/>
<feComposite in2="hardAlpha" operator="out"/>
<feColorMatrix type="matrix" values="0 0 0 0 0 0 0 0 0 0 0 0 0 0 0 0 0 0 1 0"/>
<feBlend mode="normal" in2="BackgroundImageFix" result="effect1_dropShadow_357_227"/>
<feBlend mode="normal" in="SourceGraphic" in2="effect1_dropShadow_357_227" result="shape"/>
</filter>
</defs>
</svg>
