<svg width="99" height="24" viewBox="0 0 99 24" fill="none" xmlns="http://www.w3.org/2000/svg">
<path d="M11.9873 17.4941C13.7781 17.4941 15.2314 18.9485 15.2314 20.7471C15.2314 22.5457 13.7781 24 11.9873 24C10.1967 23.9998 8.74415 22.5455 8.74414 20.7471C8.74414 18.9486 10.1967 17.4944 11.9873 17.4941ZM79.5186 5.7168C80.6574 5.7168 81.6865 5.99848 82.6055 6.56152H82.6133C83.5401 7.12454 84.2627 7.87511 84.8047 8.8291C85.3466 9.78307 85.6142 10.8701 85.6143 12.0352C85.6143 13.2002 85.3465 14.2716 84.8125 15.2334C84.2863 16.2031 83.5557 16.9624 82.6367 17.5176C81.7178 18.0649 80.6731 18.3467 79.5029 18.3467C78.6311 18.3467 77.8222 18.1741 77.0918 17.8379C76.597 17.6111 76.165 17.2982 75.8115 16.9229V22.5303H72.874V5.98242H75.6309V7.42188C76.0079 6.94485 76.4794 6.56181 77.0527 6.26465C77.7674 5.89715 78.584 5.71682 79.5186 5.7168ZM53.3477 5.7168C54.29 5.71685 55.1222 5.87378 55.8447 6.18652C56.5673 6.49932 57.1799 6.92917 57.6826 7.47656H57.6748C58.1853 8.02396 58.5621 8.64973 58.8291 9.35352C59.0961 10.0573 59.2305 10.8157 59.2305 11.6289C59.2305 11.8556 59.2218 12.075 59.1982 12.2861C59.1747 12.497 59.136 12.7002 59.0732 12.8721H50.3701C50.4172 13.2787 50.5119 13.654 50.6689 13.998C50.9281 14.5689 51.3127 15.0075 51.8232 15.3203C52.3338 15.6331 52.9232 15.7891 53.5908 15.7891C54.2582 15.789 54.8238 15.6486 55.2949 15.3672C55.7583 15.0857 56.1275 14.7094 56.3945 14.2324L58.751 15.3906C58.5153 15.9691 58.1461 16.4772 57.6436 16.9229C57.1409 17.3686 56.5438 17.7205 55.8447 17.9707C55.1458 18.2209 54.3919 18.3467 53.5752 18.3467C52.3265 18.3467 51.2345 18.0649 50.292 17.502C49.3495 16.9389 48.619 16.1718 48.1006 15.21C47.5823 14.2482 47.3232 13.2315 47.3232 12.0117C47.3233 10.7919 47.59 9.71276 48.124 8.77441C48.6581 7.82822 49.3809 7.08548 50.2842 6.53809C51.1874 5.99073 52.2088 5.7168 53.3477 5.7168ZM65.8164 5.7168C66.7588 5.71685 67.591 5.87377 68.3135 6.18652C69.0361 6.49932 69.6487 6.92916 70.1514 7.47656H70.1436C70.6462 8.02396 71.0318 8.64972 71.2988 9.35352C71.5658 10.0572 71.6992 10.8158 71.6992 11.6289C71.6992 11.8556 71.6915 12.075 71.668 12.2861C71.6444 12.4971 71.6048 12.7002 71.542 12.8721H62.8389C62.886 13.2787 62.9806 13.654 63.1377 13.998C63.3969 14.5689 63.7815 15.0075 64.292 15.3203C64.8025 15.6331 65.392 15.7891 66.0596 15.7891C66.727 15.789 67.2925 15.6486 67.7637 15.3672C68.2271 15.0857 68.5962 14.7094 68.8633 14.2324L71.2197 15.3906C70.9841 15.9691 70.6149 16.4772 70.1123 16.9229C69.6096 17.3686 69.0125 17.7205 68.3135 17.9707C67.6145 18.2209 66.8607 18.3467 66.0439 18.3467C64.7952 18.3467 63.7032 18.0649 62.7607 17.502C61.8182 16.9389 61.0877 16.1718 60.5693 15.21C60.051 14.2482 59.792 13.2315 59.792 12.0117C59.792 10.7919 60.0587 9.71276 60.5928 8.77441C61.1269 7.82821 61.8497 7.08548 62.7529 6.53809C63.6562 5.99072 64.6775 5.7168 65.8164 5.7168ZM92.5957 5.7168C93.7972 5.71684 94.8808 5.99083 95.8389 6.53809C96.8049 7.08548 97.5673 7.83603 98.1406 8.77441V8.7666C98.714 9.70494 98.997 10.8153 98.9971 12.0273C98.9971 13.2393 98.7139 14.3263 98.1328 15.2725C97.5594 16.2187 96.7893 16.9702 95.8232 17.5176C94.8652 18.0648 93.7736 18.3378 92.6035 18.3379C91.4332 18.3379 90.3646 18.065 89.3906 17.5176C88.4167 16.9702 87.6467 16.2187 87.0654 15.2725C86.4923 14.3264 86.2021 13.2392 86.2021 12.0273C86.2022 10.8154 86.4922 9.72835 87.0654 8.78223C87.6388 7.83604 88.409 7.08548 89.375 6.53809C90.3332 5.99068 91.394 5.7168 92.5957 5.7168ZM34.3672 5.70898C35.3567 5.70901 36.2363 5.97518 36.9902 6.49121C37.4614 6.81959 37.8306 7.2106 38.0977 7.67188C38.4197 7.15577 38.8207 6.74932 39.2998 6.43652C40.0381 5.95955 40.8944 5.7168 41.8525 5.7168C42.7164 5.71683 43.4779 5.91282 44.1533 6.2959L44.1768 6.28809C44.8521 6.67902 45.3788 7.21046 45.7637 7.89844C46.1485 8.5866 46.3447 9.38487 46.3447 10.292V18.0723H43.4307V10.9795C43.4306 10.4479 43.3291 9.99441 43.1406 9.60352C42.9521 9.22034 42.6766 8.91523 42.3311 8.71191C41.9856 8.50098 41.5617 8.39947 41.0986 8.39941C40.6353 8.39941 40.2265 8.50865 39.873 8.71191C39.5196 8.92305 39.2442 9.22033 39.0479 9.60352C38.8516 9.98657 38.7579 10.448 38.7578 10.9795V18.0723H35.8438V10.9795C35.8437 10.4479 35.749 9.99441 35.5527 9.60352C35.3642 9.22043 35.0897 8.9152 34.7441 8.71191C34.3985 8.50078 33.9741 8.39941 33.5107 8.39941C33.0474 8.39944 32.6386 8.50861 32.2852 8.71191C31.9318 8.92303 31.6573 9.22047 31.4609 9.60352C31.2646 9.98659 31.17 10.4479 31.1699 10.9795V18.0723H28.2324V5.97559H30.9893V7.49219C31.2327 7.01517 31.5709 6.63211 32.0107 6.35059C32.6784 5.92048 33.4639 5.70898 34.3672 5.70898ZM79.165 8.39941C78.529 8.39945 77.9557 8.55547 77.4453 8.86816C76.9348 9.18093 76.5338 9.6109 76.2432 10.1582C75.9526 10.7055 75.8116 11.3158 75.8115 12.0273C75.8115 12.7389 75.9526 13.3726 76.2432 13.9199C76.5338 14.4673 76.9348 14.8972 77.4453 15.21C77.9558 15.5227 78.4975 15.6796 79.165 15.6797C79.8327 15.6797 80.4221 15.5228 80.9326 15.21C81.443 14.8972 81.8442 14.4672 82.1426 13.9199C82.4409 13.3726 82.5898 12.7232 82.5898 12.0273C82.5898 11.3315 82.441 10.7055 82.1426 10.1582C81.852 9.61086 81.4431 9.18094 80.9326 8.86816C80.4221 8.55536 79.8012 8.39941 79.165 8.39941ZM92.6035 8.40723C91.9516 8.40723 91.3699 8.56318 90.8672 8.87598C90.3647 9.18869 89.9722 9.61885 89.6816 10.166C89.3911 10.7133 89.2491 11.3393 89.249 12.0352C89.249 12.7311 89.391 13.3569 89.6816 13.9121C89.9643 14.4672 90.3647 14.8972 90.8672 15.21C91.3699 15.5228 91.9359 15.6797 92.6035 15.6797C93.271 15.6796 93.8519 15.5227 94.3467 15.21C94.8415 14.905 95.2348 14.4673 95.5254 13.9121C95.8081 13.3569 95.957 12.731 95.957 12.0352C95.957 11.3393 95.816 10.7133 95.5254 10.166C95.2348 9.61871 94.8414 9.18874 94.3467 8.87598C93.852 8.56332 93.2552 8.40727 92.6035 8.40723ZM3.24316 8.74316C5.03386 8.74316 6.48712 10.1976 6.4873 11.9961C6.4873 13.7947 5.03398 15.25 3.24316 15.25C1.45248 15.2499 0 13.7946 0 11.9961C0.000180851 10.1977 1.45259 8.74331 3.24316 8.74316ZM11.9873 8.74316C13.778 8.74316 15.2313 10.1976 15.2314 11.9961C15.2314 13.7947 13.7781 15.25 11.9873 15.25C10.1967 15.2498 8.74414 13.7945 8.74414 11.9961C8.74432 10.1978 10.1968 8.74341 11.9873 8.74316ZM20.7383 8.74316C22.5289 8.74332 23.9813 10.1977 23.9814 11.9961C23.9814 13.7946 22.529 15.2498 20.7383 15.25C18.9475 15.25 17.4941 13.7947 17.4941 11.9961C17.4943 10.1976 18.9476 8.74316 20.7383 8.74316ZM53.3477 8.11719C52.7351 8.11719 52.1929 8.2742 51.7217 8.58691C51.2505 8.89967 50.889 9.34527 50.6455 9.92383C50.5513 10.1428 50.4807 10.3777 50.4336 10.6357H56.1201C56.0966 10.3542 56.0493 10.0959 55.9551 9.85352C55.7587 9.32177 55.436 8.89971 54.9805 8.58691C54.5251 8.2743 53.96 8.11727 53.3477 8.11719ZM65.8242 8.11719C65.2116 8.11719 64.6695 8.27418 64.1982 8.58691C63.727 8.89968 63.3656 9.34525 63.1221 9.92383C63.0278 10.1428 62.9573 10.3777 62.9102 10.6357H68.5967C68.5731 10.3542 68.5259 10.0959 68.4316 9.85352C68.2353 9.32193 67.9133 8.89968 67.458 8.58691C67.0025 8.27418 66.4367 8.11726 65.8242 8.11719ZM11.9873 0C13.7781 0 15.2314 1.4553 15.2314 3.25391C15.2312 5.05233 13.778 6.50684 11.9873 6.50684C10.1968 6.50659 8.74436 5.05217 8.74414 3.25391C8.74414 1.45545 10.1967 0.000249135 11.9873 0Z" fill="#020617"/>
</svg>
