<svg width="432" height="292" viewBox="0 0 432 292" fill="none" xmlns="http://www.w3.org/2000/svg">
<path fill-rule="evenodd" clip-rule="evenodd" d="M-22.9478 28.3215L-13.4563 233.04C-1.36158 225.44 6.92042 208.034 12.8526 191.65C18.2894 229.545 35.9707 277.074 76.9085 227.131C86.5497 270.958 118.641 285.444 143.13 245.135C155.052 292.411 185.53 310.094 214.984 261.415C231.156 299.804 263.179 302.483 289.199 254.942C313.354 293.573 341.69 288.1 362.136 238.053C380.394 288.629 413.164 254.597 422.483 194.927C431.905 226.648 450.635 248.067 459.7 237.156L460.345 24.9414L431.905 34.1276L346.54 141.074L105.913 153.594L-22.9362 28.31L-22.9478 28.3215Z" fill="#8FCBC6" stroke="#002E30" stroke-width="3" stroke-miterlimit="5.66"/>
<path fill-rule="evenodd" clip-rule="evenodd" d="M53.6485 92.3494C80.9019 40.2213 206.053 62.2729 227.087 97.2588C258.683 49.3501 351.247 39.98 383.074 87.8887L359.875 137.005L227.709 177.371L64.1882 130.348L53.6255 92.3494H53.6485Z" fill="#F23342"/>
<path fill-rule="evenodd" clip-rule="evenodd" d="M-0.0682716 2.52268C63.5614 208.747 365.1 202.148 431.897 8.86913L467.145 5.61535L453.529 44.2804L431.897 75.725C328.942 226.361 106.711 230.695 -0.102829 72.5978L-21.7466 39.1755L-25.8818 1.9248L-0.0797901 2.52268H-0.0682716Z" fill="#F07D79" stroke="#002E30" stroke-width="3" stroke-miterlimit="5.66"/>
<path fill-rule="evenodd" clip-rule="evenodd" d="M17.6036 130.222C14.9082 132.188 18.3408 142.903 19.8843 145.352C21.8079 148.399 21.4739 152.147 25.4018 154.78C30.5161 158.206 30.2857 152.745 28.2815 149.146C27.9129 148.491 21.2665 134.625 21.2435 134.545C20.6215 132.625 18.4905 129.555 17.5921 130.21L17.6036 130.222Z" fill="#002E30"/>
<path fill-rule="evenodd" clip-rule="evenodd" d="M408.984 151.365C406.104 156.745 395.933 170.381 397.407 176.601C397.822 178.349 401.75 176.9 403.455 174.554C407.394 169.105 409.26 161.689 409.986 155.113C410.239 152.802 408.799 151.733 408.995 151.365H408.984Z" fill="#002E30"/>
</svg>
