<svg width="432" height="280" viewBox="0 0 432 280" fill="none" xmlns="http://www.w3.org/2000/svg">
<path fill-rule="evenodd" clip-rule="evenodd" d="M450.343 78.0744C429.008 78.9418 404.505 85.8342 393.342 89.8471C407.051 91.2579 447.14 104.916 454.098 118.689C542.549 293.74 -52.7242 438.018 -11.9434 119.799C-1.36802 112.432 28.5033 104.326 44.2742 101.943C32.2013 96.5198 5.19838 93.8715 -13.5216 93.86C20.2896 59.0278 92.9001 56.0673 123.866 59.0278C117.864 55.1884 74.2608 27.2834 91.4717 24.7392C122.91 20.0903 173.344 34.9738 191.304 47.6715C191.961 39.8424 190.498 20.6916 189.806 14.2618C188.666 3.71502 192.963 -4.36854 209.552 9.62445C216.821 15.7536 228.318 34.0949 234.78 45.9484C278.211 21.5474 313.024 15.6726 328.738 16.1121C353.056 16.806 323.266 36.8472 311.25 50.4007C338.76 46.1334 423.109 53.6041 450.354 78.086L450.343 78.0744Z" fill="#8FCBC6" stroke="#002E30" stroke-width="3" stroke-miterlimit="5.66"/>
<path fill-rule="evenodd" clip-rule="evenodd" d="M67.2368 113.809C64.7139 115.463 67.5248 117.371 70.0707 117.371C72.9737 117.371 78.9065 116.445 82.1206 115.312C86.2217 113.971 92.9609 112.097 94.2857 110.906C97.35 108.142 87.6617 110.166 86.118 110.062C81.6137 109.75 69.2988 112.456 67.2252 113.82L67.2368 113.809Z" fill="#002E30"/>
<path fill-rule="evenodd" clip-rule="evenodd" d="M155.165 87.8933C153.287 87.9396 146.605 84.8982 144.681 87.8702C142.101 91.86 151.674 91.7443 153.69 92.2994C154.301 92.4729 171.915 95.4334 171.247 93.7681C170.901 92.9008 155.821 87.8818 155.165 87.8933Z" fill="#002E30"/>
<path fill-rule="evenodd" clip-rule="evenodd" d="M255.818 94.2183C257.407 92.6802 265.667 88.6442 267.994 87.4878C269.757 86.6089 277.671 82.8273 279.272 82.7348C281.876 82.5729 288.972 79.7165 288.788 84.9089C288.719 86.7592 271.98 90.8877 269.584 91.5816C265.736 92.6918 261.704 93.6401 257.753 94.1258C257.407 94.172 255.656 94.3802 255.818 94.2299V94.2183Z" fill="#002E30"/>
<path fill-rule="evenodd" clip-rule="evenodd" d="M341.424 110.883C341.769 109.588 351.17 110.247 358.381 111.681C364.118 112.826 377.435 111.681 378.91 116.989C380.534 122.818 366.503 117.984 364.971 117.822C361.688 117.452 357.54 116.827 354.626 115.787C350.951 114.48 341.263 111.519 341.435 110.895L341.424 110.883Z" fill="#002E30"/>
<path fill-rule="evenodd" clip-rule="evenodd" d="M-0.0541992 164.418L67.6561 172.146L182.851 208.942L272.612 200.475L397.833 150.838L433.098 164.418V316.21H-0.0541992V164.418Z" fill="#002E30"/>
<path d="M72.2524 198.034L31.0278 229.255L31.0239 229.259C30.0947 229.968 29.6156 230.392 29.1187 230.742C29.0942 230.694 29.0667 230.641 29.0386 230.58C28.7443 229.947 28.3957 228.931 27.9175 227.352L16.3052 181.897L30.3989 178.297L72.2524 198.034Z" fill="#F8F7DB" stroke="#002E30" stroke-width="3"/>
<path d="M146.982 219.141L100.89 260.383L100.882 260.39C99.4876 261.655 98.473 262.444 97.7178 262.865C97.3472 263.071 97.1009 263.153 96.9521 263.18C96.8825 263.193 96.8423 263.191 96.8262 263.19C96.8137 263.189 96.8096 263.187 96.8086 263.187C96.799 263.183 96.5433 263.06 96.1611 262.176C95.8903 261.55 95.6266 260.714 95.3379 259.633L95.04 258.469L81.8975 200.533L146.982 219.141Z" fill="#F8F7DB" stroke="#002E30" stroke-width="3"/>
<path d="M217.849 225.405L183.917 274.163L183.911 274.171C182.885 275.665 182.125 276.649 181.522 277.232C181.162 277.581 180.958 277.687 180.877 277.719C180.796 277.668 180.561 277.493 180.166 276.922C179.642 276.164 179.035 275.012 178.249 273.383L153.803 219.817L217.849 225.405Z" fill="#F8F7DB" stroke="#002E30" stroke-width="3"/>
<path d="M269.437 270.471C268.899 272.079 268.556 273.23 268.206 274.087C268.08 274.394 267.973 274.605 267.888 274.748C267.737 274.661 267.522 274.514 267.232 274.271C266.624 273.76 265.846 272.97 264.825 271.834L263.72 270.58L226.16 225.888L286.154 216.541L269.437 270.471Z" fill="#F8F7DB" stroke="#002E30" stroke-width="3"/>
<path d="M344.533 250.467C344.304 252.182 344.092 253.369 343.833 254.148C343.701 254.544 343.59 254.729 343.532 254.808C343.415 254.788 343.101 254.71 342.483 254.343C341.613 253.827 340.457 252.94 338.885 251.622L338.862 251.602L293.621 215.17L351.863 194.931L344.533 250.467Z" fill="#F8F7DB" stroke="#002E30" stroke-width="3"/>
<path d="M414.864 171.977V171.978C415.818 171.984 416.491 172.797 416.382 173.638L416.381 173.642L410.052 223.228C410.044 223.266 410.034 223.314 410.013 223.4C409.99 223.491 409.956 223.631 409.929 223.785L409.927 223.799L409.924 223.814C409.547 226.228 409.326 227.971 409.051 229.241C408.915 229.867 408.788 230.268 408.671 230.515C408.666 230.525 408.66 230.534 408.655 230.543C408.432 230.469 408.079 230.301 407.554 229.958C406.434 229.227 404.881 227.956 402.646 226.049L402.622 226.03L358.83 190.195L399.623 172.06C399.846 171.965 400.068 171.921 400.288 171.92L414.864 171.977Z" fill="#F8F7DB" stroke="#002E30" stroke-width="3"/>
<path fill-rule="evenodd" clip-rule="evenodd" d="M0.00247192 155.441C22.4665 145.541 41.9814 144.501 62.6828 154.099C173.275 207.307 256.829 213.714 369.564 149.624C390.404 138.198 410.898 136.024 432.083 145.148L474.834 154.099L461.563 245.551L432.083 186.341C420.367 163.142 398.422 169.063 385.174 177.39C273.061 237.814 166.386 245.62 39.493 180.524C7.90519 168.566 -2.90057 206.255 -17.0126 225.752L-31.9771 168.023L0.00247192 155.441Z" fill="#F07D79" stroke="#002E30" stroke-width="3" stroke-miterlimit="5.66"/>
</svg>
