<svg width="66" height="62" viewBox="0 0 66 62" fill="none" xmlns="http://www.w3.org/2000/svg">
<g clip-path="url(#clip0_357_169)">
<path d="M34.3756 51.1217L30.8315 21.8466C30.6922 20.6953 31.8142 19.7976 32.9127 20.1817L62.3724 30.4842C63.5342 30.8906 63.7962 32.4096 62.8372 33.1797L54.5607 39.8249C53.8888 40.3642 53.7788 41.3423 54.3147 42.0158L62.5527 52.3721C63.0912 53.0494 62.9771 54.0332 62.2974 54.5704L57.84 58.0945C57.1378 58.6496 56.1124 58.5086 55.5886 57.7841L47.4061 46.4785C46.8965 45.7746 45.9091 45.6182 45.2051 46.1302L36.8615 52.198C35.8916 52.9031 34.5188 52.3088 34.3751 51.1217L34.3756 51.1217Z" fill="#FEFEFE" stroke="black" stroke-width="0.578333"/>
<path d="M22.1806 6.41711C23.4208 7.6983 24.63 9.00992 25.8112 10.3505C25.7273 10.255 25.6436 10.1596 25.5597 10.066C26.6779 11.3372 27.7687 12.6343 28.832 13.9578C29.0767 14.2627 29.3569 14.4856 29.7784 14.5201C30.1339 14.5506 30.6043 14.4196 30.9185 14.1598C31.2561 13.8808 31.5497 13.4974 31.6334 13.0715C31.7089 12.6841 31.7025 12.2219 31.4746 11.9391C29.6965 9.72345 27.8396 7.57845 25.9124 5.50447C25.388 4.94031 24.8567 4.38094 24.3211 3.82685C24.0822 3.58046 23.5938 3.50467 23.2372 3.57085C22.8634 3.63854 22.4166 3.89026 22.1625 4.22261C21.8973 4.56837 21.7027 4.99159 21.7242 5.40161C21.7408 5.53049 21.7584 5.65833 21.7767 5.78677C21.8498 6.0442 21.9838 6.25446 22.1806 6.41711Z" fill="#FF9F01" stroke="black" stroke-width="0.578333"/>
<path d="M11.8958 18.872C14.5424 20.4766 17.1896 22.0803 19.8368 23.684C20.5789 24.1334 21.3221 24.5836 22.0634 25.0341C22.208 25.1641 22.379 25.2428 22.5756 25.2692C22.7542 25.3279 22.9445 25.3351 23.1474 25.29C23.5212 25.2223 23.968 24.9709 24.2221 24.6385C24.4873 24.2928 24.681 23.8688 24.6604 23.4593C24.6417 23.0794 24.5179 22.6335 24.204 22.444C21.5576 20.8393 18.9104 19.2357 16.2631 17.6321C15.5218 17.1815 14.7797 16.7322 14.0366 16.2818C13.892 16.152 13.7218 16.0741 13.5253 16.0477C13.3476 15.9878 13.1564 15.9816 12.9535 16.025C12.5797 16.0943 12.1322 16.3451 11.8778 16.6775C11.6135 17.024 11.419 17.4474 11.4397 17.8567C11.4592 18.2356 11.5831 18.6832 11.8958 18.872Z" fill="#FF9F01" stroke="black" stroke-width="0.578333"/>
<path d="M21.8458 31.9957C19.2989 31.8699 16.7361 31.82 14.1611 31.8488C13.4253 31.8562 12.6888 31.8716 11.9512 31.8917C11.7582 31.8682 11.5638 31.8957 11.3707 31.9734C11.1704 32.0189 10.9845 32.1111 10.8118 32.2525C10.4835 32.5026 10.175 32.9433 10.0971 33.341C10.0181 33.7413 10.0397 34.169 10.255 34.4742C10.4633 34.7683 10.8029 35.0473 11.2014 35.0366C13.783 34.9644 16.3532 34.9681 18.909 35.0509C19.6391 35.0736 20.3683 35.1043 21.095 35.1398C21.4773 35.1596 21.8923 35.0421 22.2353 34.7797C22.5627 34.529 22.8721 34.0889 22.9501 33.6914C23.029 33.2909 23.0073 32.8632 22.7921 32.558C22.5734 32.2499 22.2498 32.0157 21.8458 31.9957Z" fill="#FF9F01" stroke="black" stroke-width="0.578333"/>
</g>
<defs>
<clipPath id="clip0_357_169">
<rect width="61.1791" height="57.8333" fill="white" transform="translate(0.940735 4.09229) rotate(-3)"/>
</clipPath>
</defs>
</svg>
