<svg width="67" height="65" viewBox="0 0 67 65" fill="none" xmlns="http://www.w3.org/2000/svg">
<g clip-path="url(#clip0_357_212)">
<path d="M12.1551 28.9325C9.95781 29.2191 7.84126 29.7875 5.89939 30.9384C5.04999 31.441 4.26125 32.031 3.80967 32.9842C3.51394 33.6074 3.47501 34.233 3.99486 34.7851C4.50607 35.3265 5.15443 35.4429 5.66657 34.9816C9.98582 31.0746 14.9815 31.7836 19.9711 32.8714C25.8951 34.16 29.1751 38.5083 30.9768 44.2665C32.5022 49.1423 32.614 53.9906 30.1699 58.6062C29.9998 58.929 29.8749 59.2822 29.7527 59.629C29.4694 60.4359 29.6815 61.1343 30.351 61.586C31.1575 62.1286 31.9278 61.8833 32.4248 61.0984C33.3529 59.629 34.1233 58.0383 34.4891 56.3112C36.3245 47.6471 34.2923 40.0252 28.3065 33.7131C25.1374 30.3703 20.9352 29.3903 16.6452 29.0057C15.1603 28.8746 13.6536 28.6812 12.1551 28.9325Z" fill="#088D85" stroke="#084F41" stroke-width="0.578333"/>
<path d="M28.9997 49.1121C28.4269 44.1686 25.4378 41.0209 21.5945 38.7984C17.5445 36.4568 13.2627 35.7314 8.99175 38.2675C8.68611 38.4491 8.36767 38.6086 8.07067 38.804C7.30592 39.3065 6.9811 40.0089 7.37513 40.9319C7.72845 41.7594 8.43161 41.9171 9.16139 41.7144C9.83268 41.5295 10.4679 41.1989 11.1147 40.9229C18.0952 37.9145 26.4279 44.1559 26.0555 52.1212C25.9726 53.9004 25.6578 55.6309 24.9936 57.266C24.5832 58.2792 24.3004 59.3262 25.5383 59.8644C26.7836 60.4049 27.2445 59.2952 27.689 58.4043C28.6958 56.3782 29.2942 51.9275 28.9997 49.1121Z" fill="#088D85" stroke="#084F41" stroke-width="0.578333"/>
<path d="M19.7972 49.1646C19.4928 46.3973 17.4834 44.1344 15.0919 43.8963C13.7696 43.7685 12.6676 44.2097 11.9677 45.447C11.635 46.0359 11.5724 46.6756 12.0651 47.2453C12.5207 47.7749 13.0205 47.907 13.7075 47.6824C15.9296 46.9535 16.6822 47.5427 16.7218 49.9395C16.7263 50.2113 16.6058 50.4821 16.5972 50.7557C16.5752 51.4787 16.8983 52.0109 17.5302 52.2841C18.3374 52.6332 18.8876 52.1476 19.319 51.5393C19.8115 50.8487 19.9138 50.023 19.7972 49.1646Z" fill="#088D85" stroke="#084F41" stroke-width="0.578333"/>
<path d="M42.5258 19.5233C42.4188 19.3936 42.2954 19.2776 42.1441 19.1937L16.7725 8.29119C14.1697 7.40264 13.3303 10.0979 14.5428 11.179L35.9689 28.0698L41.9766 32.5748C42.905 33.4023 44.1923 32.601 44.0623 31.364L42.8372 20.2419C42.8088 19.9723 42.6941 19.7275 42.5258 19.5238L42.5258 19.5233Z" fill="#6268CF" stroke="#084F41" stroke-width="0.578333"/>
<path d="M46.557 10.8652L14.8911 6.3101C12.4938 5.77888 10.6696 8.43625 12.0263 10.4824L24.3107 35.5275C25.2812 36.9908 27.3609 37.1705 28.5676 35.8951L36.309 27.766C37.1144 26.9197 36.9476 25.549 35.9629 24.9206L14.8455 11.006C13.6329 9.92492 14.9916 8.01114 16.4121 8.79996L42.4991 20.4337C42.6499 20.5176 42.7738 20.6337 42.8808 20.7633L47.9488 15.4051C49.4059 13.8647 48.6265 11.324 46.5571 10.8657L46.557 10.8652Z" fill="#FFD47D" stroke="#084F41" stroke-width="0.578333"/>
<path d="M46.9064 13.0593C46.3582 12.4164 45.7484 12.0297 44.9935 11.8851C44.2891 11.7502 43.7741 11.9808 43.606 12.4713C43.4345 12.9708 43.6979 13.4074 44.3898 13.6946C44.9649 13.9332 45.5759 14.0817 46.0571 14.5147C46.3457 14.7743 46.7317 14.8471 47.075 14.5875C47.4701 14.2896 47.4025 13.8983 47.2114 13.5217C47.1147 13.3311 46.9749 13.1617 46.9065 13.0599L46.9064 13.0593Z" fill="#FDF3EB" stroke="#084F41" stroke-width="0.578333"/>
<path d="M42.5576 11.6576C42.2478 11.37 41.5181 11.4224 41.1962 11.7439C40.9525 11.9876 40.945 12.2551 41.1937 12.495C41.4982 12.7885 42.2082 12.7295 42.5223 12.3948C42.7523 12.1493 42.7702 11.8927 42.5576 11.6576Z" fill="#FDF3EB" stroke="#084F41" stroke-width="0.578333"/>
<path fill-rule="evenodd" clip-rule="evenodd" d="M26.6353 35.359C26.8353 35.4125 27.2994 35.171 27.3267 34.6089C27.3609 33.8766 25.1261 31.492 24.5221 31.8513C23.6612 32.365 25.0381 34.932 26.6353 35.359Z" fill="#FDF3EB" stroke="#084F41" stroke-width="0.578333"/>
<path d="M53.2645 36.217C52.9828 36.2526 52.9703 36.201 52.9276 36.0296C52.6307 34.839 52.7094 33.7895 53.1693 32.821C53.329 32.4839 53.5513 32.1931 53.8294 31.9555C54.038 31.7776 54.26 31.6592 54.4848 31.6024C54.7252 31.5416 54.9694 31.5515 55.2046 31.6346C55.6781 31.8022 56.0371 32.2498 56.141 32.8026C56.2671 33.4746 56.1464 34.1076 55.7809 34.6831C55.4872 35.1457 55.1436 35.4932 54.7861 35.6879C54.7836 35.6894 54.7806 35.6909 54.7778 35.693C54.2879 35.9824 53.8075 36.1485 53.2636 36.2171L53.2645 36.217ZM63.7176 41.7816C63.4703 41.533 63.0978 41.5179 62.801 41.5316C62.5599 41.5431 62.3187 41.5582 62.0779 41.5727C61.6319 41.5997 61.1705 41.6283 60.7201 41.6347C58.6892 41.6639 56.8195 40.9475 55.0064 39.4441C54.4968 39.0219 54.122 38.57 53.8598 38.0622C53.8393 38.0228 53.8284 37.9938 53.8229 37.9751C53.8384 37.9681 53.8621 37.959 53.896 37.95C54.5858 37.7643 55.161 37.5201 55.7613 37.1577C55.7675 37.1541 55.7737 37.1498 55.7798 37.1456L55.8903 37.0695C56.0107 36.987 56.1747 36.8746 56.3321 36.7497C57.8474 35.5456 58.3947 33.4593 57.6629 31.6773C57.1246 30.3657 55.7197 29.5655 54.3222 29.7744C53.4309 29.9078 52.6831 30.3586 52.0987 31.1144C51.2086 32.2659 50.8305 33.6522 50.943 35.3512C50.9525 35.5001 50.9768 35.6433 50.9993 35.7818C51.0123 35.8594 51.0249 35.9375 51.0353 36.0153C50.9747 35.9958 50.9159 35.9731 50.8566 35.9498C50.812 35.9322 50.7671 35.9152 50.7217 35.8989C49.7026 35.5327 48.7936 34.949 48.0396 34.4266L47.9365 34.355C47.7758 34.243 47.6151 34.131 47.4488 34.0287C47.2425 33.901 46.993 33.911 46.7992 34.0512C46.59 34.2033 46.4553 34.436 46.4291 34.6904C46.4055 34.9278 46.4783 35.152 46.6337 35.3224C46.7809 35.4827 46.9533 35.6422 47.1785 35.8245C48.367 36.7877 49.6717 37.4642 51.0565 37.8347C51.4889 37.9501 51.7513 38.1495 51.9345 38.5012C52.1663 38.9465 52.3844 39.2904 52.6217 39.5822C54.5658 41.9751 57.1457 43.2967 60.2903 43.5106C61.2128 43.5732 62.1488 43.488 62.9535 43.4022C63.1086 43.3859 63.2639 43.3582 63.4153 43.3194C63.448 43.3118 63.481 43.3029 63.5138 43.2928C63.7794 43.2167 63.9464 42.995 63.9621 42.6995C63.9771 42.4022 63.9626 42.0298 63.7163 41.7823L63.7176 41.7816Z" fill="#6268CF" stroke="#084F41" stroke-width="0.578333"/>
</g>
<defs>
<clipPath id="clip0_357_212">
<rect width="60.024" height="57.8333" fill="white" transform="translate(0.352905 7.24908) rotate(-6)"/>
</clipPath>
</defs>
</svg>
