<svg width="72" height="62" viewBox="0 0 72 62" fill="none" xmlns="http://www.w3.org/2000/svg">
<g clip-path="url(#clip0_357_179)">
<path d="M2.15144 36.9055C2.15144 36.9055 5.96324 31.6889 12.4567 28.7772C17.7256 26.4136 33.4831 21.3722 37.6085 19.3206C45.1489 15.5695 50.2381 10.2782 50.2381 10.2782L69.598 24.3748C69.598 24.3748 65.2365 29.4689 59.5189 33.435C53.7293 37.4529 38.8027 38.8657 31.1562 44.73C26.2056 48.527 20.2184 58.8586 20.2184 58.8586L2.15266 36.9043L2.15144 36.9055Z" fill="#EE3029" stroke="#21033F" stroke-width="0.578333"/>
<path d="M6.11658 36.9375L19.4772 53.819C20.7381 51.7998 24.418 46.1548 27.7458 43.528C33.0379 39.3487 38.7867 37.865 44.3462 36.4282C48.1729 35.44 51.787 34.5072 55.1806 32.756C61.0793 29.7134 64.8788 26.0433 66.1612 24.6989L50.3976 13.3961C48.9931 14.5629 43.7245 18.8482 39.9464 20.7197C36.9561 22.2001 31.578 24.1885 26.3774 26.1111C22.4708 27.5545 18.7796 28.9193 16.245 30.0109C12.1618 31.7678 9.55046 33.6598 8.07765 34.9376C7.06693 35.8159 6.43973 36.5307 6.11652 36.9388L6.11658 36.9375ZM19.6021 55.9552L4.60065 36.9998L4.85248 36.6028C4.96131 36.4311 7.61139 32.3596 15.8029 28.8335C18.3659 27.7299 22.0702 26.3608 25.9921 24.912C31.1642 23.0003 36.5128 21.0226 39.4483 19.569C43.6209 17.5026 49.9407 12.1687 50.0035 12.1153L50.3486 11.8229L67.9931 24.4746L67.5314 25.0183C67.4881 25.069 66.447 26.2869 64.4615 27.9961C62.6393 29.566 59.6385 31.8638 55.7 33.8968C52.1908 35.7072 48.5158 36.6565 44.624 37.661C39.1811 39.067 33.5535 40.5201 28.4576 44.5434C24.6284 47.5664 20.0881 55.1432 20.0423 55.2195L19.6032 55.9552L19.6021 55.9552Z" fill="#21033F" stroke="#21033F" stroke-width="0.578333"/>
<path d="M29.5391 24.2555C26.9417 25.4387 25.1196 28.663 28.4116 33.2553C31.7036 37.8451 38.3849 39.1006 41.3858 38.1702C44.3869 37.241 45.532 31.6679 42.8215 28.4759C40.1109 25.2838 35.4332 21.5711 29.5402 24.2556L29.5391 24.2555Z" fill="#21033F" stroke="#21033F" stroke-width="0.578333"/>
<path d="M21.2146 37.7056C21.7862 38.5608 21.7837 39.6053 21.2107 40.0384C20.6366 40.4727 19.7084 40.1309 19.1379 39.2757C18.5662 38.4216 18.5687 37.3772 19.1417 36.9428C19.7159 36.5098 20.6441 36.8516 21.2146 37.7056Z" fill="#21033F" stroke="#21033F" stroke-width="0.578333"/>
<path d="M53.8143 21.8064C54.5006 22.5593 54.6473 23.5907 54.1407 24.111C53.6337 24.6302 52.6676 24.4403 51.9813 23.6875C51.2954 22.9334 51.1486 21.9032 51.6552 21.3829C52.1618 20.8637 53.1284 21.0524 53.8155 21.8065L53.8143 21.8064Z" fill="#21033F" stroke="#21033F" stroke-width="0.578333"/>
<path d="M7.11823 34.8809C9.36925 34.8141 10.6881 38.6661 8.29654 39.5102C7.36096 39.8406 6.35265 39.0339 5.84027 38.178C5.01848 36.8021 6.20445 36.3235 6.46807 35.5021L7.11941 34.8809L7.11823 34.8809Z" fill="#21033F" stroke="#21033F" stroke-width="0.578333"/>
<path d="M19.5474 49.7531C18.1932 49.697 17.6741 50.8314 17.9832 52.1986L19.8876 54.6931L21.2202 52.1023C22.3997 51.8573 20.4939 49.7913 19.5474 49.7531Z" fill="#21033F" stroke="#21033F" stroke-width="0.578333"/>
<path d="M65.0475 23.3644L64.8356 23.4629C62.1522 23.2053 62.4528 26.3339 64.8931 26.3103C65.5829 26.3045 66.8814 25.854 67.0347 24.8963C67.1953 23.8896 65.7902 23.412 65.0475 23.3644Z" fill="#21033F" stroke="#21033F" stroke-width="0.578333"/>
<path d="M50.8121 13.1283C50.088 12.8612 49.7506 13.2254 49.2478 14.0034L48.94 13.9873C48.8471 15.1157 49.101 15.9001 50.2758 16.0295C51.0263 16.1131 52.0953 15.6961 52.1741 14.79C52.2348 14.091 51.4432 13.3609 50.8121 13.1283Z" fill="#21033F" stroke="#21033F" stroke-width="0.578333"/>
<path d="M39.0351 28.8787C38.5674 28.4538 37.8823 28.259 37.3474 28.3419L35.9054 28.5668L37.4092 29.9317L38.8512 29.7067C39.3861 29.6239 39.495 29.2957 39.0351 28.8787ZM39.0781 32.8868L33.5038 27.83L36.4837 27.3666C37.8684 27.1509 39.4422 27.7766 40.4197 28.663C41.3894 29.5428 41.4518 30.4121 40.0766 30.6258L38.4532 30.8782L40.4336 32.6745L39.077 32.8855L39.0781 32.8868Z" fill="#FEFEFE" stroke="#21033F" stroke-width="0.578333"/>
<path d="M33.4727 29.7444C33.005 29.3195 32.3094 29.1254 31.7651 29.2102L30.3419 29.4313L31.8457 30.7961L33.2689 30.5751C33.8132 30.4903 33.9404 30.168 33.4715 29.7443L33.4727 29.7444ZM37.1159 33.1923L33.8844 31.5903L32.8907 31.7452L34.871 33.5415L33.5145 33.7525L27.9402 28.6956L30.9201 28.2322C32.2474 28.0258 33.82 28.5887 34.8562 29.5287C35.8425 30.4229 35.6619 31.0109 35.1167 31.2471L38.6715 32.9498L37.1148 33.1922L37.1159 33.1923Z" fill="#FEFEFE" stroke="#21033F" stroke-width="0.578333"/>
<path d="M27.3333 7.71037C26.3007 8.04575 25.3354 8.58367 24.4196 9.1597C23.5893 9.68237 22.7651 10.2228 21.9701 10.797C21.0784 11.4422 20.2144 12.141 19.4308 12.9146C18.6589 13.6744 17.9852 14.5329 17.4191 15.457C17.1376 15.9176 16.8938 16.4012 16.6987 16.9041C16.4565 17.5273 16.2489 18.1591 16.1373 18.8177C16.0699 19.216 16.1274 19.6284 16.35 19.972C16.5548 20.288 16.9402 20.5747 17.3169 20.6376C17.7081 20.7035 18.1383 20.6624 18.4713 20.4248C18.795 20.1954 19.0695 19.8613 19.1368 19.458C19.2114 19.0147 19.3264 18.5814 19.4745 18.1576C19.4281 18.2869 19.3829 18.4166 19.3365 18.5458C19.6163 17.7638 20.0108 17.0326 20.4825 16.3505C20.4065 16.4597 20.3308 16.5677 20.2547 16.677C20.9149 15.7353 21.7159 14.909 22.5908 14.1661C22.4914 14.2503 22.3916 14.3356 22.2921 14.4197C23.1063 13.7317 23.9769 13.1147 24.8652 12.5265C25.7466 11.9406 26.6337 11.3471 27.587 10.8832C27.4696 10.9397 27.3508 10.9959 27.2332 11.0535C27.5785 10.8877 27.9307 10.7421 28.2947 10.6241C28.66 10.5051 28.9979 10.2147 29.1746 9.87473C29.3507 9.53721 29.4074 9.04885 29.27 8.68711C29.1321 8.32277 28.885 7.97511 28.521 7.80593C28.1455 7.63162 27.7336 7.58014 27.3333 7.71037Z" fill="#9072AA" stroke="#21033F" stroke-width="0.578333"/>
<path d="M18.2796 4.95436C17.204 5.43854 16.1876 6.01574 15.2678 6.75773C14.3509 7.49792 13.5094 8.31313 12.8066 9.26077C12.3774 9.83774 11.9771 10.4373 11.635 11.0705C11.4482 11.4171 11.4171 11.8858 11.5396 12.2582C11.6556 12.6079 11.9486 12.9803 12.2888 13.1382C12.6541 13.3078 13.0901 13.3808 13.4777 13.234C13.8544 13.091 14.1627 12.8457 14.3577 12.4846C14.5821 12.0683 14.8295 11.6671 15.1006 11.2783C15.0246 11.3876 14.9488 11.4956 14.8729 11.6048C15.4834 10.7366 16.2018 9.95155 17.0095 9.26464C16.91 9.34879 16.8103 9.43411 16.7107 9.51826C17.5079 8.84538 18.3866 8.27279 19.3275 7.82003C19.2098 7.87769 19.0924 7.93427 18.9737 7.9904C19.0619 7.94777 19.1509 7.90661 19.2398 7.86654C19.435 7.8104 19.6026 7.71194 19.7433 7.57014C19.9072 7.45445 20.0324 7.30316 20.121 7.1175C20.2959 6.77974 20.3534 6.29282 20.2164 5.92983C20.0784 5.56546 19.8314 5.21789 19.4671 5.04985C19.1157 4.88577 18.6488 4.78728 18.2796 4.95436Z" fill="#9072AA" stroke="#21033F" stroke-width="0.578333"/>
<path d="M55.0071 40.6895C53.9804 42.2368 52.7994 43.6798 51.4864 44.994C51.1112 45.3703 50.7243 45.7353 50.3278 46.0907C50.4271 46.0021 50.5255 45.9143 50.6245 45.8256C49.2204 47.0802 47.6937 48.1982 46.0679 49.1495C45.6017 49.4231 45.1265 49.6814 44.6461 49.9276C44.7625 49.8686 44.8793 49.8088 44.9953 49.7498C44.8559 49.8207 44.7152 49.8911 44.5738 49.9602C44.3795 50.0214 44.2135 50.1247 44.0757 50.2701C43.9111 50.3942 43.7873 50.553 43.704 50.7482C43.5433 51.0877 43.5022 51.5649 43.6459 51.9207C43.7958 52.2875 44.0576 52.6313 44.4343 52.7906C44.7843 52.937 45.2486 53.0226 45.6065 52.8486C47.4673 51.9375 49.2364 50.872 50.8706 49.5986C52.4999 48.3296 54.0151 46.8982 55.3527 45.3226C56.0632 44.4862 56.724 43.606 57.3324 42.6912C57.4768 42.5344 57.572 42.354 57.6178 42.1504C57.6978 41.9617 57.7239 41.7635 57.6979 41.5572C57.6656 41.1902 57.4662 40.7594 57.1715 40.5275C56.8543 40.2797 56.4482 40.108 56.0375 40.1619C55.6697 40.2104 55.2228 40.3654 55.0071 40.6895Z" fill="#9072AA" stroke="#21033F" stroke-width="0.578333"/>
<path d="M55.7991 48.8821C55.7801 48.9128 55.7608 48.9426 55.7411 48.9729C55.816 48.8576 55.8905 48.7423 55.965 48.6282C55.4319 49.4428 54.7958 50.1839 54.0722 50.835C54.1706 50.7476 54.27 50.6585 54.3689 50.5698C53.858 51.0271 53.309 51.435 52.7235 51.7915C52.3938 51.9924 52.143 52.4222 52.0788 52.7934C52.0153 53.157 52.0987 53.623 52.3231 53.923C52.5653 54.2456 52.9143 54.5149 53.3257 54.5686C53.7338 54.6221 54.1013 54.5395 54.4554 54.3243C55.2917 53.8135 56.0522 53.1906 56.7522 52.5053C57.4607 51.8119 58.0382 51.0276 58.571 50.194C58.7675 49.8881 58.7464 49.3472 58.6291 49.0215C58.5035 48.6678 58.1943 48.2999 57.8411 48.1517C57.4754 47.9976 57.0482 47.9393 56.6698 48.0941C56.5526 48.1526 56.4362 48.2116 56.3197 48.2719C56.0921 48.429 55.9183 48.6317 55.7987 48.882L55.7991 48.8821Z" fill="#9072AA" stroke="#21033F" stroke-width="0.578333"/>
</g>
<defs>
<clipPath id="clip0_357_179">
<rect width="67.5426" height="57.8333" fill="white" transform="translate(3.62909 0.649292) rotate(3)"/>
</clipPath>
</defs>
</svg>
