<svg width="59" height="64" viewBox="0 0 59 64" fill="none" xmlns="http://www.w3.org/2000/svg">
<g clip-path="url(#clip0_357_201)">
<path d="M48.0974 27.0188C48.4092 32.5125 48.8335 38.3123 49.0131 44.1545C49.0763 46.3031 48.5751 48.5543 48.2642 50.7695C48.1989 51.2216 47.9203 51.7135 47.5788 52.209C46.9692 53.0846 44.7305 53.901 41.4273 54.4718C35.0813 55.5698 28.7222 56.6411 22.4026 57.6286C16.9418 58.4809 15.3016 58.3645 14.7557 57.1787C13.9645 55.4438 13.127 53.7137 12.8314 51.8835C11.2815 42.3546 9.95289 32.7841 8.44099 23.248C7.99239 20.3924 7.22368 17.5968 6.58412 14.7754C6.11583 12.6992 9.35306 11.3131 18.8024 9.62969C22.7059 8.93414 26.6333 8.28261 30.5156 7.6845C36.4849 6.76612 38.7215 6.77957 39.7219 7.98911C41.1405 9.70368 42.2717 11.4843 43.0293 13.3349C44.8381 17.7618 46.35 22.2462 48.0974 27.0188Z" fill="#344F7B" stroke="#6C2D01" stroke-width="0.578333"/>
<path d="M41.7796 21.8448C41.1593 22.513 40.6647 23.0601 40.1526 23.5926C38.5879 25.2148 37.416 25.2302 35.8674 23.5345C35.0452 22.6358 34.3436 21.624 33.6129 20.6453C33.2932 20.2194 33.0379 19.747 32.5922 19.0393C31.6978 20.2884 31.0387 21.2041 30.3879 22.1229C29.1333 23.897 28.1609 24.0826 26.5638 22.6463C25.3094 21.5187 24.193 20.2352 22.9219 18.9225C22.1808 19.787 21.5139 20.6359 20.7755 21.4131C19.51 22.7448 18.3462 22.7632 17.1391 21.3892C16.2537 20.3815 15.5074 19.2476 14.6097 18.0532C13.4349 18.8657 12.3412 19.6376 11.2269 20.3819C10.6651 20.7577 10.0938 21.1433 9.47846 21.4197C8.36437 21.9188 7.43561 21.608 7.28249 20.4683C6.98399 18.258 6.89343 16.0162 6.81678 13.7845C6.79349 13.0529 7.26926 12.4612 8.13306 12.5989C8.9067 12.7228 8.93673 13.3294 8.95147 14.0003C8.98888 15.5308 9.11779 17.0623 9.23255 18.9932C10.7627 17.8621 11.9508 16.9828 13.143 16.106C14.7116 14.9533 15.2872 15.0138 16.5236 16.5764C17.316 17.5765 18.0382 18.6353 18.9307 19.8591C19.7703 18.8685 20.4797 17.9815 21.2414 17.1427C22.5046 15.7532 23.359 15.7363 24.6293 17.0979C25.7829 18.3321 26.8846 19.6141 28.1034 20.9788C29.1001 19.7105 29.9148 18.551 30.858 17.5074C32.3174 15.8933 33.1309 15.9618 34.4186 17.6855C35.5498 19.1945 36.6648 20.7146 37.9134 22.4043C38.771 21.5052 39.4438 20.7636 40.1507 20.0618C42.0049 18.2206 42.9917 18.384 44.1037 20.6841C44.2472 20.9828 44.3971 21.2799 44.65 21.7947C45.0596 21.3048 45.3782 20.9311 45.6889 20.5501C46.0772 20.0813 46.3905 19.5131 46.8664 19.1644C47.1825 18.9354 47.8372 18.8315 48.1361 19.01C48.4411 19.1913 48.7595 19.954 48.6186 20.18C47.6633 21.7234 46.6724 23.2609 45.5117 24.6505C44.9555 25.3169 44.055 24.9409 43.5316 24.3422C42.9154 23.6335 42.442 22.8035 41.7796 21.8448Z" fill="#9ED5D7" stroke="#6C2D01" stroke-width="0.578333"/>
<path d="M43.7974 35.0568C43.1772 35.725 42.6826 36.2721 42.1705 36.8046C40.6057 38.4268 39.4338 38.4422 37.8853 36.7465C37.063 35.8478 36.3614 34.8359 35.6307 33.8573C35.311 33.4314 35.0558 32.959 34.61 32.2512C33.7156 33.5004 33.0566 34.4161 32.4057 35.3348C31.1512 37.1089 30.1788 37.2946 28.5816 35.8582C27.3273 34.7307 26.2108 33.4471 24.9397 32.1345C24.1986 32.999 23.5317 33.8478 22.7934 34.6251C21.5278 35.9568 20.3641 35.9752 19.1569 34.6011C18.2716 33.5934 17.5252 32.4596 16.6275 31.2651C15.4528 32.0776 14.359 32.8496 13.2447 33.5938C12.6829 33.9697 12.1116 34.3552 11.4963 34.6317C10.3822 35.1307 9.45346 34.8199 9.30032 33.6803C9.00181 31.47 8.91125 29.2282 8.83459 26.9965C8.81134 26.2648 9.28708 25.6731 10.1509 25.8109C10.9245 25.9348 10.9546 26.5413 10.9693 27.2123C11.0067 28.7427 11.1356 30.2743 11.2503 32.2052C12.7805 31.074 13.9687 30.1947 15.1608 29.3179C16.7294 28.1653 17.305 28.2257 18.5414 29.7884C19.3338 30.7884 20.056 31.8473 20.9486 33.071C21.7881 32.0805 22.4975 31.1935 23.2593 30.3546C24.5224 28.9651 25.3769 28.9483 26.6471 30.3099C27.8007 31.544 28.9025 32.8261 30.1212 34.1907C31.1179 32.9225 31.9327 31.763 32.8758 30.7194C34.3352 29.1053 35.1488 29.1738 36.4364 30.8975C37.5676 32.4064 38.6826 33.9265 39.9312 35.6162C40.7889 34.7171 41.4616 33.9755 42.1685 33.2738C44.0227 31.4326 45.0096 31.596 46.1216 33.896C46.265 34.1947 46.4149 34.4918 46.6678 35.0067C47.0775 34.5168 47.396 34.143 47.7069 33.7621C48.0949 33.2933 48.4086 32.725 48.8842 32.3763C49.2004 32.1474 49.855 32.0434 50.1541 32.222C50.4591 32.4033 50.7775 33.1659 50.6366 33.392C49.6811 34.9353 48.6903 36.4729 47.5295 37.8625C46.9733 38.5289 46.0728 38.1528 45.5495 37.5541C44.9332 36.8455 44.4598 36.0155 43.7974 35.0568Z" fill="#9ED5D7" stroke="#6C2D01" stroke-width="0.578333"/>
<path d="M24.3359 48.3952C24.238 49.2035 24.9811 49.7348 25.7721 49.4433C26.3846 49.2182 26.9803 48.9439 27.5945 48.7231C28.4864 48.4008 29.3974 48.1308 30.2834 47.7954C31.0327 47.511 31.1418 47.048 30.607 46.4539C30.3022 46.1149 29.9276 45.8411 29.5845 45.5378C28.5034 44.6927 27.4048 43.869 26.3659 42.9684C26.001 42.6527 24.9694 42.7749 24.6643 43.1478C24.529 43.3133 24.2566 47.3441 24.3359 48.3952Z" fill="#F94941" stroke="#6C2D01" stroke-width="0.578333"/>
<path d="M45.9659 27.2923C42.9855 31.2275 39.8448 35.4057 36.6658 39.5529C35.4965 41.0774 34.2363 42.5334 33.0073 44.0117C32.7565 44.3129 32.4705 44.589 32.1791 44.8517C31.6631 45.3151 31.0789 45.3312 30.5629 44.9099C29.5708 44.1017 28.5925 43.2712 27.6624 42.3919C26.8592 41.6315 26.8214 41.1414 27.4351 40.173C28.3336 38.7575 29.2265 37.3343 30.2074 35.9758C35.3148 28.8987 40.4586 21.8476 45.5722 14.775C47.1037 12.6582 48.5826 10.5039 50.0837 8.36345C51.1885 6.78897 52.1454 6.62133 53.6494 7.79091C54.2703 8.27393 54.8691 8.79384 55.4358 9.34003C56.3067 10.1808 56.4377 10.7468 55.8388 11.8451C54.9907 13.4022 54.0883 14.934 53.1245 16.422C50.819 19.9808 48.4639 23.506 45.9659 27.2923Z" fill="#FBCB2E" stroke="#6C2D01" stroke-width="0.578333"/>
</g>
<defs>
<clipPath id="clip0_357_201">
<rect width="52.0941" height="57.8333" fill="white" transform="translate(6.54987 0.976929) rotate(6)"/>
</clipPath>
</defs>
</svg>
